<svg id="Layer_1" data-name="Layer 1" xmlns="http://www.w3.org/2000/svg" viewBox="0 0 23 23"><defs><style>.cls-1{fill:#0aa5a5;}.cls-2{fill:#fdfefe;}</style></defs><title>mint</title><circle class="cls-1" cx="11.5" cy="11.5" r="11.5"/><path class="cls-2" d="M11.53,3.28c.41.45.83.89,1.23,1.35a26.68,26.68,0,0,1,3,4A12.45,12.45,0,0,1,17.19,12a5.08,5.08,0,0,1,0,2.89,4.47,4.47,0,0,1-1.32,1.86,18.33,18.33,0,0,1-2.22,1.63l-2.12,1.39-.67-.45C9.89,18.64,9,18,8,17.39a6.3,6.3,0,0,1-1.77-1.72,4,4,0,0,1-.62-2.62A9.47,9.47,0,0,1,7,9.13a27.23,27.23,0,0,1,4.09-5.4C11.2,3.58,11.36,3.45,11.53,3.28Zm-.17,14.36V5.86l0,0a24.9,24.9,0,0,0-2.87,4,8.61,8.61,0,0,0-1.12,2.94,3,3,0,0,0,.07,1.46,3.06,3.06,0,0,0,1,1.33,28.4,28.4,0,0,0,2.64,1.85Z"/></svg>