<svg xmlns="http://www.w3.org/2000/svg" viewBox="0 0 7.54 10.5"><defs><style>.cls-1{fill:#fff;}</style></defs><title>padlock</title><g id="Layer_2" data-name="Layer 2"><g id="Layer_1-2" data-name="Layer 1"><path class="cls-1" d="M6.6,4.13l.19,0a1.06,1.06,0,0,1,.75,1.06c0,.79,0,1.58,0,2.36V9.37A1.06,1.06,0,0,1,6.4,10.5H1.13A1.06,1.06,0,0,1,0,9.37V5.29A1.06,1.06,0,0,1,.87,4.15l.07,0V2.69A2.62,2.62,0,0,1,3.05.08,2.91,2.91,0,0,1,5.73.71a2.61,2.61,0,0,1,.87,2V4.13Zm-1.06,0V2.61A1.59,1.59,0,0,0,4.3,1.12a3.94,3.94,0,0,0-.69,0A1.58,1.58,0,0,0,2,2.69Q2,3.34,2,4v.15ZM3.33,7.56,2.85,8.8H4.69L4.22,7.57c.55-.46.63-1.05.21-1.47a.91.91,0,0,0-1.34,0A.94.94,0,0,0,3.33,7.56Z"/></g></g></svg>