<svg id="Layer_1" data-name="Layer 1" xmlns="http://www.w3.org/2000/svg" viewBox="0 0 23 23"><defs><style>.cls-1{fill:#369e00;}.cls-2{fill:#fff;}</style></defs><title>quickbooks</title><circle class="cls-1" cx="11.5" cy="11.5" r="11.5"/><path class="cls-2" d="M10.92,7.46c0,1.86,0,3.72,0,5.57v5.58c0,.51-.11.58-.6.41a1.73,1.73,0,0,1-1.17-1.77c0-2.56,0-5.12,0-7.68,0-1,.14-.85-.84-.85a6.73,6.73,0,0,0-1.19.07,2.76,2.76,0,0,0,.4,5.46c.91,0,.85-.13.84.87s.18.94-.93.91A4.54,4.54,0,0,1,7.56,7c.94,0,1.88,0,2.83,0C10.78,6.93,10.92,7.05,10.92,7.46Z"/><path class="cls-2" d="M19.89,11.58A4.53,4.53,0,0,1,15.37,16c-.93,0-1.86,0-2.79,0-.38,0-.5-.13-.5-.5,0-1,0-1.89,0-2.84V4.44c0-.58.14-.66.69-.44a1.78,1.78,0,0,1,1.1,1.78V13.6c0,.66,0,.66.67.66h.78a2.77,2.77,0,0,0,.1-5.54c-.78,0-.79,0-.77-.84,0-1-.24-1,1-.91A4.51,4.51,0,0,1,19.89,11.58Z"/></svg>