<svg id="Layer_1" data-name="Layer 1" xmlns="http://www.w3.org/2000/svg" viewBox="0 0 32 32"><defs><style>.cls-1{fill:#505050;}</style></defs><title>unlock</title><path class="cls-1" d="M9.18,0c.66.12,1.34.2,2,.37a7.41,7.41,0,0,1,4.6,3.53A10.5,10.5,0,0,1,17.18,9c0,.69,0,1.37,0,2.08H13.51c0-.65,0-1.29,0-1.93a7.31,7.31,0,0,0-.64-2.84A4.13,4.13,0,0,0,9.38,3.74a4.8,4.8,0,0,0-4,1.08,5,5,0,0,0-1.5,3,18.41,18.41,0,0,0-.2,2.46c0,1.07,0,2.14,0,3.24H0a.17.17,0,0,1,0-.05c0-1.85,0-3.7.14-5.53a8.74,8.74,0,0,1,3-6A7.7,7.7,0,0,1,7.1.13l1-.13Z"/><path class="cls-1" d="M19.68,12.32h8.56A3.73,3.73,0,0,1,32,16.06c0,4.06,0,8.12,0,12.18a3.65,3.65,0,0,1-2.87,3.65,3.61,3.61,0,0,1-.86.1H11.13a3.7,3.7,0,0,1-3.75-3.81c0-2.73,0-5.45,0-8.18,0-1.26,0-2.52,0-3.78a3.7,3.7,0,0,1,3.87-3.91ZM18.44,24.53v.75c0,.21,0,.42,0,.63a1.24,1.24,0,0,0,2.48-.11q0-1.22,0-2.43a.52.52,0,0,1,.24-.49A2.46,2.46,0,0,0,19,18.57a2.45,2.45,0,0,0-.77,4.31.5.5,0,0,1,.23.47C18.43,23.74,18.44,24.14,18.44,24.53Z"/></svg>